<svg width="365" height="104" viewBox="0 0 365 104" fill="none" xmlns="http://www.w3.org/2000/svg">
<mask id="path-1-outside-1_145_10519" maskUnits="userSpaceOnUse" x="-4" y="-4" width="373" height="112" fill="black">
<rect fill="white" x="-4" y="-4" width="373" height="112"/>
<path d="M104.551 -1.54972e-06H130.551V42.25H107.801L130.551 65V104H104.551V75.79L93.7608 65H26.5508L0.550781 39V-1.54972e-06H26.5508V28.34L37.2108 39H104.551V-1.54972e-06ZM247.5 -1.54972e-06L273.5 26V104H169.5L143.5 78V-1.54972e-06H247.5ZM236.71 26H206.16L213.83 33.67L239.83 59.67L247.5 67.34V36.79L236.71 26ZM180.16 78H221.5L169.5 26V67.34L180.16 78ZM364.449 -1.54972e-06V31.46L363.279 32.5L312.449 83.46V104H286.449V72.67L287.489 71.5L338.449 20.67V-1.54972e-06H364.449ZM338.449 104V78H364.449V104H338.449ZM286.449 26V-1.54972e-06H312.449V26H286.449Z"/>
</mask>
<path d="M104.551 -1.90735e-06V-4H100.551V-1.90735e-06H104.551ZM130.551 -1.90735e-06H134.551V-4H130.551V-1.90735e-06ZM130.551 42.25V46.25H134.551V42.25H130.551ZM107.801 42.25V38.25H98.1439L104.972 45.0784L107.801 42.25ZM130.551 65H134.551V63.3431L133.379 62.1716L130.551 65ZM130.551 104V108H134.551V104H130.551ZM104.551 104H100.551V108H104.551V104ZM104.551 75.79H108.551V74.1331L107.379 72.9616L104.551 75.79ZM93.7608 65L96.5892 62.1716L95.4176 61H93.7608V65ZM26.5508 65L23.7224 67.8284L24.8939 69H26.5508V65ZM0.550781 39H-3.44922V40.6569L-2.27765 41.8284L0.550781 39ZM0.550781 -1.90735e-06V-4H-3.44922V-1.90735e-06H0.550781ZM26.5508 -1.90735e-06H30.5508V-4H26.5508V-1.90735e-06ZM26.5508 28.34H22.5508V29.9969L23.7224 31.1684L26.5508 28.34ZM37.2108 39L34.3824 41.8284L35.5539 43H37.2108V39ZM104.551 39V43H108.551V39H104.551ZM104.551 4H130.551V-4H104.551V4ZM126.551 -1.90735e-06V42.25H134.551V-1.90735e-06H126.551ZM130.551 38.25H107.801V46.25H130.551V38.25ZM104.972 45.0784L127.722 67.8284L133.379 62.1716L110.629 39.4216L104.972 45.0784ZM126.551 65V104H134.551V65H126.551ZM130.551 100H104.551V108H130.551V100ZM108.551 104V75.79H100.551V104H108.551ZM107.379 72.9616L96.5892 62.1716L90.9324 67.8284L101.722 78.6184L107.379 72.9616ZM93.7608 61H26.5508V69H93.7608V61ZM29.3792 62.1716L3.37921 36.1716L-2.27765 41.8284L23.7224 67.8284L29.3792 62.1716ZM4.55078 39V-1.90735e-06H-3.44922V39H4.55078ZM0.550781 4H26.5508V-4H0.550781V4ZM22.5508 -1.90735e-06V28.34H30.5508V-1.90735e-06H22.5508ZM23.7224 31.1684L34.3824 41.8284L40.0392 36.1716L29.3792 25.5116L23.7224 31.1684ZM37.2108 43H104.551V35H37.2108V43ZM108.551 39V-1.90735e-06H100.551V39H108.551ZM247.5 -1.90735e-06L250.328 -2.82843L249.157 -4H247.5V-1.90735e-06ZM273.5 26H277.5V24.3431L276.328 23.1716L273.5 26ZM273.5 104V108H277.5V104H273.5ZM169.5 104L166.672 106.828L167.843 108H169.5V104ZM143.5 78H139.5V79.6569L140.672 80.8284L143.5 78ZM143.5 -1.90735e-06V-4H139.5V-1.90735e-06H143.5ZM236.71 26L239.538 23.1716L238.367 22H236.71V26ZM206.16 26V22H196.503L203.332 28.8284L206.16 26ZM247.5 67.34L244.672 70.1684L251.5 76.9969V67.34H247.5ZM247.5 36.79H251.5V35.1331L250.328 33.9616L247.5 36.79ZM180.16 78L177.332 80.8284L178.503 82H180.16V78ZM221.5 78V82H231.157L224.328 75.1716L221.5 78ZM169.5 26L172.328 23.1716L165.5 16.3431V26H169.5ZM169.5 67.34H165.5V68.9969L166.672 70.1684L169.5 67.34ZM244.672 2.82843L270.672 28.8284L276.328 23.1716L250.328 -2.82843L244.672 2.82843ZM269.5 26V104H277.5V26H269.5ZM273.5 100H169.5V108H273.5V100ZM172.328 101.172L146.328 75.1716L140.672 80.8284L166.672 106.828L172.328 101.172ZM147.5 78V-1.90735e-06H139.5V78H147.5ZM143.5 4H247.5V-4H143.5V4ZM236.71 22H206.16V30H236.71V22ZM203.332 28.8284L211.002 36.4984L216.658 30.8416L208.988 23.1716L203.332 28.8284ZM211.002 36.4984L237.002 62.4984L242.658 56.8416L216.658 30.8416L211.002 36.4984ZM237.002 62.4984L244.672 70.1684L250.328 64.5116L242.658 56.8416L237.002 62.4984ZM251.5 67.34V36.79H243.5V67.34H251.5ZM250.328 33.9616L239.538 23.1716L233.882 28.8284L244.672 39.6184L250.328 33.9616ZM180.16 82H221.5V74H180.16V82ZM224.328 75.1716L172.328 23.1716L166.672 28.8284L218.672 80.8284L224.328 75.1716ZM165.5 26V67.34H173.5V26H165.5ZM166.672 70.1684L177.332 80.8284L182.988 75.1716L172.328 64.5116L166.672 70.1684ZM364.449 -1.90735e-06H368.449V-4H364.449V-1.90735e-06ZM364.449 31.46L367.107 34.4496L368.449 33.2563V31.46H364.449ZM363.279 32.5L360.622 29.5104L360.532 29.5902L360.447 29.6752L363.279 32.5ZM312.449 83.46L309.617 80.6352L308.449 81.8061V83.46H312.449ZM312.449 104V108H316.449V104H312.449ZM286.449 104H282.449V108H286.449V104ZM286.449 72.67L283.46 70.0125L282.449 71.1492V72.67H286.449ZM287.489 71.5L284.664 68.668L284.579 68.7528L284.5 68.8425L287.489 71.5ZM338.449 20.67L341.274 23.502L342.449 22.3298V20.67H338.449ZM338.449 -1.90735e-06V-4H334.449V-1.90735e-06H338.449ZM338.449 104H334.449V108H338.449V104ZM338.449 78V74H334.449V78H338.449ZM364.449 78H368.449V74H364.449V78ZM364.449 104V108H368.449V104H364.449ZM286.449 26H282.449V30H286.449V26ZM286.449 -1.90735e-06V-4H282.449V-1.90735e-06H286.449ZM312.449 -1.90735e-06H316.449V-4H312.449V-1.90735e-06ZM312.449 26V30H316.449V26H312.449ZM360.449 -1.90735e-06V31.46H368.449V-1.90735e-06H360.449ZM361.792 28.4704L360.622 29.5104L365.937 35.4896L367.107 34.4496L361.792 28.4704ZM360.447 29.6752L309.617 80.6352L315.281 86.2848L366.111 35.3248L360.447 29.6752ZM308.449 83.46V104H316.449V83.46H308.449ZM312.449 100H286.449V108H312.449V100ZM290.449 104V72.67H282.449V104H290.449ZM289.439 75.3275L290.479 74.1575L284.5 68.8425L283.46 70.0125L289.439 75.3275ZM290.314 74.332L341.274 23.502L335.624 17.838L284.664 68.668L290.314 74.332ZM342.449 20.67V-1.90735e-06H334.449V20.67H342.449ZM338.449 4H364.449V-4H338.449V4ZM342.449 104V78H334.449V104H342.449ZM338.449 82H364.449V74H338.449V82ZM360.449 78V104H368.449V78H360.449ZM364.449 100H338.449V108H364.449V100ZM290.449 26V-1.90735e-06H282.449V26H290.449ZM286.449 4H312.449V-4H286.449V4ZM308.449 -1.90735e-06V26H316.449V-1.90735e-06H308.449ZM312.449 22H286.449V30H312.449V22Z" fill="#95FFD9" mask="url(#path-1-outside-1_145_10519)"/>
</svg>
