<svg width="87" height="109" viewBox="0 0 87 109" fill="none" xmlns="http://www.w3.org/2000/svg">
<mask id="path-1-outside-1_145_10524" maskUnits="userSpaceOnUse" x="-3" y="-3.30798" width="94" height="115" fill="black">
<rect fill="white" x="-3" y="-3.30798" width="94" height="115"/>
<path d="M22.2589 0.220017H35.7466L35.7466 19.1028L54.6294 0.220017H87L87 86.5415L65.4196 108.122H51.9319L51.9319 89.239L33.0491 108.122H0.678533L0.678533 21.8004L22.2589 0.220017ZM22.2589 86.5415H24.2011L33.0491 77.6935L33.0491 21.8004H31.2148L22.2589 30.7562L22.2589 86.5415ZM65.4196 77.6935L65.4196 21.8004H63.5853L54.6294 30.7562L54.6294 86.5415H56.5717L65.4196 77.6935Z"/>
</mask>
<path d="M22.2589 0.220016V-3.10004H20.8837L19.9113 -2.12762L22.2589 0.220016ZM35.7466 0.220016H39.0667V-3.10004H35.7466V0.220016ZM35.7466 19.1028H32.4266V27.1182L38.0943 21.4505L35.7466 19.1028ZM54.6294 0.220016V-3.10004H53.2542L52.2818 -2.12762L54.6294 0.220016ZM87 0.220016H90.3201V-3.10004H87V0.220016ZM87 86.5415L89.3476 88.8891L90.3201 87.9167V86.5415H87ZM65.4196 108.122V111.442H66.7948L67.7673 110.469L65.4196 108.122ZM51.9319 108.122H48.6118V111.442H51.9319V108.122ZM51.9319 89.239H55.252V81.2237L49.5843 86.8914L51.9319 89.239ZM33.0491 108.122V111.442H34.4243L35.3967 110.469L33.0491 108.122ZM0.678533 108.122H-2.64152L-2.64152 111.442H0.678533L0.678533 108.122ZM0.678533 21.8004L-1.6691 19.4528L-2.64152 20.4252V21.8004H0.678533ZM22.2589 86.5415H18.9388V89.8615H22.2589V86.5415ZM24.2011 86.5415V89.8615H25.5763L26.5488 88.8891L24.2011 86.5415ZM33.0491 77.6935L35.3967 80.0412L36.3691 79.0688V77.6935H33.0491ZM33.0491 21.8004H36.3691V18.4803H33.0491V21.8004ZM31.2148 21.8004V18.4803H29.8395L28.8671 19.4528L31.2148 21.8004ZM22.2589 30.7562L19.9113 28.4086L18.9388 29.381V30.7562H22.2589ZM65.4196 77.6935L67.7673 80.0412L68.7397 79.0688V77.6935H65.4196ZM65.4196 21.8004H68.7397V18.4803H65.4196V21.8004ZM63.5853 21.8004V18.4803H62.2101L61.2377 19.4528L63.5853 21.8004ZM54.6294 30.7562L52.2818 28.4086L51.3094 29.381V30.7562H54.6294ZM54.6294 86.5415H51.3094V89.8615H54.6294V86.5415ZM56.5717 86.5415V89.8615H57.9469L58.9193 88.8891L56.5717 86.5415ZM22.2589 3.54007H35.7466V-3.10004H22.2589L22.2589 3.54007ZM32.4266 0.220016L32.4266 19.1028H39.0667L39.0667 0.220016H32.4266ZM38.0943 21.4505L56.9771 2.56765L52.2818 -2.12762L33.399 16.7552L38.0943 21.4505ZM54.6294 3.54007H87V-3.10004H54.6294V3.54007ZM83.6799 0.220016L83.6799 86.5415H90.3201L90.3201 0.220016H83.6799ZM84.6524 84.1939L63.072 105.774L67.7673 110.469L89.3476 88.8891L84.6524 84.1939ZM65.4196 104.802H51.9319V111.442H65.4196V104.802ZM55.252 108.122L55.252 89.239H48.6118L48.6118 108.122H55.252ZM49.5843 86.8914L30.7014 105.774L35.3967 110.469L54.2795 91.5867L49.5843 86.8914ZM33.0491 104.802H0.678533L0.678533 111.442H33.0491V104.802ZM3.99859 108.122L3.99859 21.8004H-2.64152L-2.64152 108.122H3.99859ZM3.02617 24.148L24.6065 2.56765L19.9113 -2.12762L-1.6691 19.4528L3.02617 24.148ZM22.2589 89.8615H24.2011V83.2214H22.2589V89.8615ZM26.5488 88.8891L35.3967 80.0412L30.7014 75.3459L21.8535 84.1939L26.5488 88.8891ZM36.3691 77.6935L36.3691 21.8004H29.729L29.729 77.6935H36.3691ZM33.0491 18.4803H31.2148V25.1204H33.0491V18.4803ZM28.8671 19.4528L19.9113 28.4086L24.6065 33.1039L33.5624 24.148L28.8671 19.4528ZM18.9388 30.7562L18.9388 86.5415H25.579L25.579 30.7562H18.9388ZM68.7397 77.6935L68.7397 21.8004H62.0996L62.0996 77.6935H68.7397ZM65.4196 18.4803H63.5853V25.1204H65.4196V18.4803ZM61.2377 19.4528L52.2818 28.4086L56.9771 33.1039L65.9329 24.148L61.2377 19.4528ZM51.3094 30.7562L51.3094 86.5415H57.9495L57.9495 30.7562H51.3094ZM54.6294 89.8615H56.5717V83.2214H54.6294V89.8615ZM58.9193 88.8891L67.7673 80.0412L63.072 75.3459L54.224 84.1939L58.9193 88.8891Z" fill="#95FFD9" mask="url(#path-1-outside-1_145_10524)"/>
</svg>
