<svg width="926" height="343" viewBox="0 0 926 343" fill="none" xmlns="http://www.w3.org/2000/svg">
<mask id="path-1-inside-1_19_5078" fill="white">
<path d="M120 -2.38419e-06H200V160H160V125L125 160H1.49012e-07V120L120 -2.38419e-06ZM160 115V40H136.6L56.6 120H108.4L136.8 91.8L160 115ZM401.922 -2.38419e-06H441.922V65H406.922L441.922 100V160H241.922V120H401.922V116.6L385.322 100H281.922L241.922 60V-2.38419e-06H281.922V43.4L298.522 60H401.922V-2.38419e-06ZM643.844 -2.38419e-06L683.844 40V160H643.844V56.6L627.244 40H563.844L603.844 80V160H563.844V96.6L535.644 68.2L523.844 56.6V160H483.844V-2.38419e-06H523.844L558.844 35V-2.38419e-06H643.844ZM845.766 -2.38419e-06H925.766V160H885.766V125L850.766 160H725.766V120L845.766 -2.38419e-06ZM885.766 115V40H862.366L782.366 120H834.166L862.566 91.8L885.766 115ZM115 183H200V223H120V343H80V239.6L63.4 223H1.49012e-07V183H80L115 218V183ZM241.922 183H441.922V223H281.922V243H441.922V283H298.522L281.922 299.6V303H441.922V343H241.922V283L276.922 248H241.922V183ZM523.844 239.6V303H683.844V343H483.844V223L523.844 183H683.844V223H540.444L523.844 239.6ZM885.766 183H925.766V343H885.766V283H765.766V343H725.766V183H765.766V243H885.766V183Z"/>
</mask>
<path d="M120 -2.38419e-06V-3H118.757L117.879 -2.12132L120 -2.38419e-06ZM200 -2.38419e-06H203V-3H200V-2.38419e-06ZM200 160V163H203V160H200ZM160 160H157V163H160V160ZM160 125H163V117.757L157.879 122.879L160 125ZM125 160V163H126.243L127.121 162.121L125 160ZM0 160H-3V163H0V160ZM0 120L-2.12132 117.879L-3 118.757V120H0ZM160 115L157.879 117.121L163 122.243V115H160ZM160 40H163V37H160V40ZM136.6 40V37H135.357L134.479 37.8787L136.6 40ZM56.6 120L54.4787 117.879L49.3574 123H56.6V120ZM108.4 120V123H109.636L110.514 122.129L108.4 120ZM136.8 91.8L138.921 89.6787L136.807 87.5648L134.686 89.6712L136.8 91.8ZM120 3H200V-3H120V3ZM197 -2.38419e-06V160H203V-2.38419e-06H197ZM200 157H160V163H200V157ZM163 160V125H157V160H163ZM157.879 122.879L122.879 157.879L127.121 162.121L162.121 127.121L157.879 122.879ZM125 157H0V163H125V157ZM3 160V120H-3V160H3ZM2.12132 122.121L122.121 2.12132L117.879 -2.12132L-2.12132 117.879L2.12132 122.121ZM163 115V40H157V115H163ZM160 37H136.6V43H160V37ZM134.479 37.8787L54.4787 117.879L58.7213 122.121L138.721 42.1213L134.479 37.8787ZM56.6 123H108.4V117H56.6V123ZM110.514 122.129L138.914 93.9288L134.686 89.6712L106.286 117.871L110.514 122.129ZM134.679 93.9213L157.879 117.121L162.121 112.879L138.921 89.6787L134.679 93.9213ZM401.922 -2.38419e-06V-3H398.922V-2.38419e-06H401.922ZM441.922 -2.38419e-06H444.922V-3H441.922V-2.38419e-06ZM441.922 65V68H444.922V65H441.922ZM406.922 65V62H399.679L404.801 67.1213L406.922 65ZM441.922 100H444.922V98.7574L444.043 97.8787L441.922 100ZM441.922 160V163H444.922V160H441.922ZM241.922 160H238.922V163H241.922V160ZM241.922 120V117H238.922V120H241.922ZM401.922 120V123H404.922V120H401.922ZM401.922 116.6H404.922V115.357L404.043 114.479L401.922 116.6ZM385.322 100L387.443 97.8787L386.565 97H385.322V100ZM281.922 100L279.801 102.121L280.679 103H281.922V100ZM241.922 60H238.922V61.2426L239.801 62.1213L241.922 60ZM241.922 -2.38419e-06V-3H238.922V-2.38419e-06H241.922ZM281.922 -2.38419e-06H284.922V-3H281.922V-2.38419e-06ZM281.922 43.4H278.922V44.6426L279.801 45.5213L281.922 43.4ZM298.522 60L296.401 62.1213L297.279 63H298.522V60ZM401.922 60V63H404.922V60H401.922ZM401.922 3H441.922V-3H401.922V3ZM438.922 -2.38419e-06V65H444.922V-2.38419e-06H438.922ZM441.922 62H406.922V68H441.922V62ZM404.801 67.1213L439.801 102.121L444.043 97.8787L409.043 62.8787L404.801 67.1213ZM438.922 100V160H444.922V100H438.922ZM441.922 157H241.922V163H441.922V157ZM244.922 160V120H238.922V160H244.922ZM241.922 123H401.922V117H241.922V123ZM404.922 120V116.6H398.922V120H404.922ZM404.043 114.479L387.443 97.8787L383.201 102.121L399.801 118.721L404.043 114.479ZM385.322 97H281.922V103H385.322V97ZM284.043 97.8787L244.043 57.8787L239.801 62.1213L279.801 102.121L284.043 97.8787ZM244.922 60V-2.38419e-06H238.922V60H244.922ZM241.922 3H281.922V-3H241.922V3ZM278.922 -2.38419e-06V43.4H284.922V-2.38419e-06H278.922ZM279.801 45.5213L296.401 62.1213L300.643 57.8787L284.043 41.2787L279.801 45.5213ZM298.522 63H401.922V57H298.522V63ZM404.922 60V-2.38419e-06H398.922V60H404.922ZM643.844 -2.38419e-06L645.965 -2.12132L645.086 -3H643.844V-2.38419e-06ZM683.844 40H686.844V38.7574L685.965 37.8787L683.844 40ZM683.844 160V163H686.844V160H683.844ZM643.844 160H640.844V163H643.844V160ZM643.844 56.6H646.844V55.3574L645.965 54.4787L643.844 56.6ZM627.244 40L629.365 37.8787L628.486 37H627.244V40ZM563.844 40V37H556.601L561.722 42.1213L563.844 40ZM603.844 80H606.844V78.7574L605.965 77.8787L603.844 80ZM603.844 160V163H606.844V160H603.844ZM563.844 160H560.844V163H563.844V160ZM563.844 96.6H566.844V95.3636L565.973 94.4862L563.844 96.6ZM535.644 68.2L537.773 66.0862L537.76 66.0733L537.747 66.0606L535.644 68.2ZM523.844 56.6L525.947 54.4606L520.844 49.444V56.6H523.844ZM523.844 160V163H526.844V160H523.844ZM483.844 160H480.844V163H483.844V160ZM483.844 -2.38419e-06V-3H480.844V-2.38419e-06H483.844ZM523.844 -2.38419e-06L525.965 -2.12132L525.086 -3H523.844V-2.38419e-06ZM558.844 35L556.722 37.1213L561.844 42.2426V35H558.844ZM558.844 -2.38419e-06V-3H555.844V-2.38419e-06H558.844ZM641.722 2.12132L681.722 42.1213L685.965 37.8787L645.965 -2.12132L641.722 2.12132ZM680.844 40V160H686.844V40H680.844ZM683.844 157H643.844V163H683.844V157ZM646.844 160V56.6H640.844V160H646.844ZM645.965 54.4787L629.365 37.8787L625.122 42.1213L641.722 58.7213L645.965 54.4787ZM627.244 37H563.844V43H627.244V37ZM561.722 42.1213L601.722 82.1213L605.965 77.8787L565.965 37.8787L561.722 42.1213ZM600.844 80V160H606.844V80H600.844ZM603.844 157H563.844V163H603.844V157ZM566.844 160V96.6H560.844V160H566.844ZM565.973 94.4862L537.773 66.0862L533.515 70.3138L561.715 98.7138L565.973 94.4862ZM537.747 66.0606L525.947 54.4606L521.741 58.7394L533.541 70.3394L537.747 66.0606ZM520.844 56.6V160H526.844V56.6H520.844ZM523.844 157H483.844V163H523.844V157ZM486.844 160V-2.38419e-06H480.844V160H486.844ZM483.844 3H523.844V-3H483.844V3ZM521.722 2.12132L556.722 37.1213L560.965 32.8787L525.965 -2.12132L521.722 2.12132ZM561.844 35V-2.38419e-06H555.844V35H561.844ZM558.844 3H643.844V-3H558.844V3ZM845.766 -2.38419e-06V-3H844.523L843.644 -2.12132L845.766 -2.38419e-06ZM925.766 -2.38419e-06H928.766V-3H925.766V-2.38419e-06ZM925.766 160V163H928.766V160H925.766ZM885.766 160H882.766V163H885.766V160ZM885.766 125H888.766V117.757L883.644 122.879L885.766 125ZM850.766 160V163H852.008L852.887 162.121L850.766 160ZM725.766 160H722.766V163H725.766V160ZM725.766 120L723.644 117.879L722.766 118.757V120H725.766ZM885.766 115L883.644 117.121L888.766 122.243V115H885.766ZM885.766 40H888.766V37H885.766V40ZM862.366 40V37H861.123L860.244 37.8787L862.366 40ZM782.366 120L780.244 117.879L775.123 123H782.366V120ZM834.166 120V123H835.402L836.279 122.129L834.166 120ZM862.566 91.8L864.687 89.6787L862.573 87.5648L860.452 89.6712L862.566 91.8ZM845.766 3H925.766V-3H845.766V3ZM922.766 -2.38419e-06V160H928.766V-2.38419e-06H922.766ZM925.766 157H885.766V163H925.766V157ZM888.766 160V125H882.766V160H888.766ZM883.644 122.879L848.644 157.879L852.887 162.121L887.887 127.121L883.644 122.879ZM850.766 157H725.766V163H850.766V157ZM728.766 160V120H722.766V160H728.766ZM727.887 122.121L847.887 2.12132L843.644 -2.12132L723.644 117.879L727.887 122.121ZM888.766 115V40H882.766V115H888.766ZM885.766 37H862.366V43H885.766V37ZM860.244 37.8787L780.244 117.879L784.487 122.121L864.487 42.1213L860.244 37.8787ZM782.366 123H834.166V117H782.366V123ZM836.279 122.129L864.679 93.9288L860.452 89.6712L832.052 117.871L836.279 122.129ZM860.444 93.9213L883.644 117.121L887.887 112.879L864.687 89.6787L860.444 93.9213ZM115 183V180H112V183H115ZM200 183H203V180H200V183ZM200 223V226H203V223H200ZM120 223V220H117V223H120ZM120 343V346H123V343H120ZM80 343H77V346H80V343ZM80 239.6H83V238.357L82.1213 237.479L80 239.6ZM63.4 223L65.5213 220.879L64.6426 220H63.4V223ZM0 223H-3V226H0V223ZM0 183V180H-3V183H0ZM80 183L82.1213 180.879L81.2426 180H80V183ZM115 218L112.879 220.121L118 225.243V218H115ZM115 186H200V180H115V186ZM197 183V223H203V183H197ZM200 220H120V226H200V220ZM117 223V343H123V223H117ZM120 340H80V346H120V340ZM83 343V239.6H77V343H83ZM82.1213 237.479L65.5213 220.879L61.2787 225.121L77.8787 241.721L82.1213 237.479ZM63.4 220H0V226H63.4V220ZM3 223V183H-3V223H3ZM0 186H80V180H0V186ZM77.8787 185.121L112.879 220.121L117.121 215.879L82.1213 180.879L77.8787 185.121ZM118 218V183H112V218H118ZM241.922 183V180H238.922V183H241.922ZM441.922 183H444.922V180H441.922V183ZM441.922 223V226H444.922V223H441.922ZM281.922 223V220H278.922V223H281.922ZM281.922 243H278.922V246H281.922V243ZM441.922 243H444.922V240H441.922V243ZM441.922 283V286H444.922V283H441.922ZM298.522 283V280H297.279L296.401 280.879L298.522 283ZM281.922 299.6L279.801 297.479L278.922 298.357V299.6H281.922ZM281.922 303H278.922V306H281.922V303ZM441.922 303H444.922V300H441.922V303ZM441.922 343V346H444.922V343H441.922ZM241.922 343H238.922V346H241.922V343ZM241.922 283L239.801 280.879L238.922 281.757V283H241.922ZM276.922 248L279.043 250.121L284.165 245H276.922V248ZM241.922 248H238.922V251H241.922V248ZM241.922 186H441.922V180H241.922V186ZM438.922 183V223H444.922V183H438.922ZM441.922 220H281.922V226H441.922V220ZM278.922 223V243H284.922V223H278.922ZM281.922 246H441.922V240H281.922V246ZM438.922 243V283H444.922V243H438.922ZM441.922 280H298.522V286H441.922V280ZM296.401 280.879L279.801 297.479L284.043 301.721L300.643 285.121L296.401 280.879ZM278.922 299.6V303H284.922V299.6H278.922ZM281.922 306H441.922V300H281.922V306ZM438.922 303V343H444.922V303H438.922ZM441.922 340H241.922V346H441.922V340ZM244.922 343V283H238.922V343H244.922ZM244.043 285.121L279.043 250.121L274.801 245.879L239.801 280.879L244.043 285.121ZM276.922 245H241.922V251H276.922V245ZM244.922 248V183H238.922V248H244.922ZM523.844 239.6L521.722 237.479L520.844 238.357V239.6H523.844ZM523.844 303H520.844V306H523.844V303ZM683.844 303H686.844V300H683.844V303ZM683.844 343V346H686.844V343H683.844ZM483.844 343H480.844V346H483.844V343ZM483.844 223L481.722 220.879L480.844 221.757V223H483.844ZM523.844 183V180H522.601L521.722 180.879L523.844 183ZM683.844 183H686.844V180H683.844V183ZM683.844 223V226H686.844V223H683.844ZM540.444 223V220H539.201L538.322 220.879L540.444 223ZM520.844 239.6V303H526.844V239.6H520.844ZM523.844 306H683.844V300H523.844V306ZM680.844 303V343H686.844V303H680.844ZM683.844 340H483.844V346H683.844V340ZM486.844 343V223H480.844V343H486.844ZM485.965 225.121L525.965 185.121L521.722 180.879L481.722 220.879L485.965 225.121ZM523.844 186H683.844V180H523.844V186ZM680.844 183V223H686.844V183H680.844ZM683.844 220H540.444V226H683.844V220ZM538.322 220.879L521.722 237.479L525.965 241.721L542.565 225.121L538.322 220.879ZM885.766 183V180H882.766V183H885.766ZM925.766 183H928.766V180H925.766V183ZM925.766 343V346H928.766V343H925.766ZM885.766 343H882.766V346H885.766V343ZM885.766 283H888.766V280H885.766V283ZM765.766 283V280H762.766V283H765.766ZM765.766 343V346H768.766V343H765.766ZM725.766 343H722.766V346H725.766V343ZM725.766 183V180H722.766V183H725.766ZM765.766 183H768.766V180H765.766V183ZM765.766 243H762.766V246H765.766V243ZM885.766 243V246H888.766V243H885.766ZM885.766 186H925.766V180H885.766V186ZM922.766 183V343H928.766V183H922.766ZM925.766 340H885.766V346H925.766V340ZM888.766 343V283H882.766V343H888.766ZM885.766 280H765.766V286H885.766V280ZM762.766 283V343H768.766V283H762.766ZM765.766 340H725.766V346H765.766V340ZM728.766 343V183H722.766V343H728.766ZM725.766 186H765.766V180H725.766V186ZM762.766 183V243H768.766V183H762.766ZM765.766 246H885.766V240H765.766V246ZM888.766 243V183H882.766V243H888.766Z" fill="white" fill-opacity="0.61" mask="url(#path-1-inside-1_19_5078)"/>
</svg>
