<svg width="25" height="25" viewBox="0 0 25 25" fill="none" xmlns="http://www.w3.org/2000/svg">
<path d="M18 2.51282C18 2.37681 18.0527 2.24637 18.1464 2.1502C18.2402 2.05403 18.3674 2 18.5 2C18.6326 2 18.7598 2.05403 18.8536 2.1502C18.9473 2.24637 19 2.37681 19 2.51282V5.07692H21.5C21.6326 5.07692 21.7598 5.13095 21.8536 5.22712C21.9473 5.3233 22 5.45374 22 5.58974C22 5.72575 21.9473 5.85619 21.8536 5.95236C21.7598 6.04853 21.6326 6.10256 21.5 6.10256H19V8.66667C19 8.80268 18.9473 8.93311 18.8536 9.02929C18.7598 9.12546 18.6326 9.17949 18.5 9.17949C18.3674 9.17949 18.2402 9.12546 18.1464 9.02929C18.0527 8.93311 18 8.80268 18 8.66667V6.10256H15.5C15.3674 6.10256 15.2402 6.04853 15.1464 5.95236C15.0527 5.85619 15 5.72575 15 5.58974C15 5.45374 15.0527 5.3233 15.1464 5.22712C15.2402 5.13095 15.3674 5.07692 15.5 5.07692H18V2.51282ZM7 7.12821C7 6.85619 7.10536 6.59531 7.29289 6.40297C7.48043 6.21062 7.73478 6.10256 8 6.10256H11.5C11.6326 6.10256 11.7598 6.04853 11.8536 5.95236C11.9473 5.85619 12 5.72575 12 5.58974C12 5.45374 11.9473 5.3233 11.8536 5.22712C11.7598 5.13095 11.6326 5.07692 11.5 5.07692H8C7.46957 5.07692 6.96086 5.29304 6.58579 5.67773C6.21071 6.06242 6 6.58417 6 7.12821V21.4872C6 21.5824 6.02586 21.6758 6.07467 21.7568C6.12349 21.8378 6.19334 21.9033 6.27639 21.9459C6.35945 21.9885 6.45242 22.0065 6.5449 21.9979C6.63738 21.9894 6.72572 21.9546 6.8 21.8974L12.5 17.3846L18.2 21.8974C18.2743 21.9546 18.3626 21.9894 18.4551 21.9979C18.5476 22.0065 18.6406 21.9885 18.7236 21.9459C18.8067 21.9033 18.8765 21.8378 18.9253 21.7568C18.9741 21.6758 19 21.5824 19 21.4872V12.7692C19 12.6332 18.9473 12.5028 18.8536 12.4066C18.7598 12.3104 18.6326 12.2564 18.5 12.2564C18.3674 12.2564 18.2402 12.3104 18.1464 12.4066C18.0527 12.5028 18 12.6332 18 12.7692V20.441L12.8 16.3385C12.7135 16.2719 12.6082 16.2359 12.5 16.2359C12.3918 16.2359 12.2865 16.2719 12.2 16.3385L7 20.441V7.12821Z" fill="white"/>
</svg>
