<svg width="24" height="24" viewBox="0 0 24 24" fill="none" xmlns="http://www.w3.org/2000/svg">
<path fill-rule="evenodd" clip-rule="evenodd" d="M15.72 4.50783C15.6897 4.56032 15.6488 4.6056 15.6 4.64067H15.61C15.5254 4.70111 15.423 4.72997 15.32 4.72242C15.2086 4.71225 15.1034 4.66567 15.02 4.58958L13 2.53572V9.75999C13 9.89549 12.9473 10.0254 12.8536 10.1213C12.7598 10.2171 12.6326 10.2709 12.5 10.2709C12.3674 10.2709 12.2402 10.2171 12.1464 10.1213C12.0527 10.0254 12 9.89549 12 9.75999V2.55616L10 4.5998C9.92432 4.673 9.82612 4.71709 9.72216 4.72454C9.61821 4.73199 9.51495 4.70235 9.43 4.64067H9.41C9.36293 4.60472 9.32419 4.55861 9.29654 4.50563C9.26888 4.45265 9.253 4.39409 9.25 4.33412C9.24252 4.27547 9.24759 4.21586 9.26486 4.15941C9.28212 4.10296 9.31117 4.05101 9.35 4.00714L12.15 1.14605C12.2435 1.05243 12.3691 1 12.5 1C12.6309 1 12.7565 1.05243 12.85 1.14605L15.65 4.00714C15.7143 4.07304 15.7559 4.1585 15.7685 4.25065C15.7811 4.3428 15.7641 4.43665 15.72 4.51805V4.50783ZM16.5 6.69453H18C18.5304 6.69453 19.0391 6.90984 19.4142 7.2931C19.7893 7.67635 20 8.19616 20 8.73817V18.9564C20 19.4984 19.7893 20.0182 19.4142 20.4014C19.0391 20.7847 18.5304 21 18 21H7C6.46957 21 5.96086 20.7847 5.58579 20.4014C5.21071 20.0182 5 19.4984 5 18.9564V8.73817C5 8.19616 5.21071 7.67635 5.58579 7.2931C5.96086 6.90984 6.46957 6.69453 7 6.69453H8.5C8.63046 6.69373 8.75607 6.74506 8.85 6.83758C8.95 6.93976 9 7.06238 9 7.19522C8.99812 7.32998 8.94421 7.45853 8.85 7.55286C8.75769 7.64912 8.63188 7.70421 8.5 7.70613H6.9C6.4 7.70613 6 8.11486 6 8.62577V19.0483C6 19.2922 6.09482 19.5261 6.2636 19.6986C6.43239 19.8711 6.66131 19.968 6.9 19.968H18.1C18.6 19.968 19 19.5592 19 19.0483V8.62577C19 8.11486 18.6 7.70613 18.1 7.70613H16.5C16.3674 7.70613 16.2402 7.6523 16.1464 7.55649C16.0527 7.46067 16 7.33072 16 7.19522C16 7.05972 16.0527 6.92977 16.1464 6.83395C16.2402 6.73814 16.3674 6.68431 16.5 6.68431V6.69453Z" fill="white"/>
</svg>
