<svg width="15" height="16" viewBox="0 0 15 16" fill="none" xmlns="http://www.w3.org/2000/svg">
<path d="M9.08514 10.1521L7.75927 13.7974C7.72632 13.8852 7.66728 13.9609 7.59004 14.0143C7.51281 14.0677 7.42107 14.0963 7.32709 14.0963C7.2331 14.0963 7.14136 14.0677 7.06413 14.0143C6.9869 13.9609 6.92785 13.8852 6.8949 13.7974L5.57636 10.1521C5.55246 10.0896 5.51517 10.033 5.46709 9.98632C5.41902 9.93964 5.36132 9.90397 5.298 9.88181L1.64272 8.55955C1.55132 8.53011 1.47163 8.47253 1.4151 8.39509C1.35858 8.31765 1.32812 8.22432 1.32812 8.12853C1.32812 8.03275 1.35858 7.93942 1.4151 7.86198C1.47163 7.78453 1.55132 7.72696 1.64272 7.69752L5.298 6.38257C5.3607 6.35873 5.41743 6.32154 5.46424 6.2736C5.51105 6.22565 5.54681 6.16811 5.56904 6.10497L6.8949 2.45962C6.92785 2.37184 6.9869 2.2962 7.06413 2.24279C7.14136 2.18938 7.2331 2.16077 7.32709 2.16077C7.42107 2.16077 7.51281 2.18938 7.59004 2.24279C7.66728 2.2962 7.72632 2.37184 7.75927 2.45962L9.07781 6.10497C9.10172 6.16749 9.139 6.22407 9.18708 6.27075C9.23515 6.31743 9.29286 6.3531 9.35617 6.37526L13.0114 7.69752C13.0995 7.73039 13.1753 7.78927 13.2289 7.86629C13.2824 7.94331 13.3111 8.03481 13.3111 8.12853C13.3111 8.22226 13.2824 8.31376 13.2289 8.39078C13.1753 8.4678 13.0995 8.52668 13.0114 8.55955L9.35617 9.8745C9.29347 9.89834 9.23674 9.93553 9.18993 9.98347C9.14312 10.0314 9.10736 10.089 9.08514 10.1521Z" fill="#95FFD9"/>
</svg>
