<svg width="24" height="24" viewBox="0 0 24 24" fill="none" xmlns="http://www.w3.org/2000/svg">
<path d="M17.7922 16.6108C18.5045 15.9389 19.0688 15.1257 19.4488 14.2231C19.8288 13.3206 20.0162 12.3486 19.9989 11.3695C19.9989 7.31034 16.5213 4 12.0684 4C7.61552 4 4 7.31034 4 11.3695C4 15.4384 7.61552 18.7389 12.0783 18.7389C12.8705 18.7402 13.6592 18.6342 14.4229 18.4236C14.6495 18.6207 14.8958 18.8079 15.1618 18.9754C16.2061 19.6552 17.3291 20 18.5113 20C18.7281 20 18.9054 19.8916 18.9842 19.7143C19.0254 19.6335 19.0435 19.543 19.0366 19.4526C19.0296 19.3622 18.9979 19.2755 18.9448 19.202C18.3696 18.4303 17.9787 17.5372 17.802 16.5911V16.6108H17.7922ZM14.7185 17.6552L14.6594 17.4384L14.3441 17.5369C13.6087 17.755 12.8453 17.8645 12.0783 17.8621C8.10809 17.8621 4.88664 14.9458 4.88664 11.3695C4.88664 7.7931 8.10809 4.8867 12.0783 4.8867C16.0189 4.8867 19.0729 7.80296 19.0729 11.3892C19.0729 13.1626 18.4818 14.8079 17.0829 16.0394L16.8858 16.197V16.4532L16.9055 16.7488C17.041 17.585 17.3353 18.3876 17.7725 19.1133C17.0055 18.9942 16.275 18.7047 15.6347 18.266C15.3588 18.0985 14.9254 17.8916 14.7086 17.6847L14.7185 17.665V17.6552Z" fill="white"/>
</svg>
