<svg width="24" height="24" viewBox="0 0 24 24" fill="none" xmlns="http://www.w3.org/2000/svg">
<path fill-rule="evenodd" clip-rule="evenodd" d="M11.0393 1L11.6751 3.48434L12.3109 1H11.0393ZM13.6128 4.16374L15.1468 2.0343L13.956 1.62869L13.6128 4.16374ZM8.23371 2.02416L9.76771 4.16374L9.42458 1.62869L8.23371 2.0343V2.02416ZM18.2552 19.3436C17.5625 20.0961 16.6245 20.5746 15.6111 20.6922L16.0248 20.317C18.4369 17.8834 18.9112 15.2977 17.4377 12.5801L16.5194 10.9577L15.712 9.26425C15.4597 8.6964 15.5202 8.27051 15.9239 7.95616C16.0022 7.89663 16.0921 7.85417 16.1876 7.83147C16.2832 7.80877 16.3824 7.80634 16.479 7.82434C16.7616 7.87504 17.024 8.05757 17.2056 8.33135L19.5975 12.5497C20.5764 14.1924 20.748 16.839 18.2552 19.3436ZM7.15385 18.8974L2.96561 14.6892C2.8292 14.5282 2.75817 14.3214 2.76663 14.11C2.7751 13.8987 2.86245 13.6983 3.0113 13.5488C3.16014 13.3992 3.35958 13.3114 3.56991 13.3029C3.78025 13.2944 3.98606 13.3658 4.14639 13.5028L6.32629 15.6931C6.39868 15.7427 6.4861 15.7651 6.57326 15.7564C6.66043 15.7478 6.74179 15.7086 6.80312 15.6458C6.86445 15.5829 6.90185 15.5004 6.90877 15.4127C6.91569 15.325 6.8917 15.2376 6.84099 15.1658L4.67118 12.9756L3.19773 11.5154C3.06132 11.3543 2.99029 11.1475 2.99875 10.9362C3.00722 10.7248 3.09457 10.5244 3.24342 10.3749C3.39226 10.2253 3.5917 10.1376 3.80203 10.129C4.01237 10.1205 4.21818 10.1919 4.37851 10.329L7.84011 13.8172C7.87403 13.8528 7.91476 13.8811 7.95985 13.9004C8.00495 13.9198 8.05347 13.9297 8.10251 13.9297C8.15154 13.9297 8.20007 13.9198 8.24516 13.9004C8.29026 13.8811 8.33099 13.8528 8.3649 13.8172C8.40032 13.7831 8.4285 13.7422 8.44775 13.6969C8.467 13.6516 8.47693 13.6028 8.47693 13.5535C8.47693 13.5043 8.467 13.4555 8.44775 13.4102C8.4285 13.3649 8.40032 13.324 8.3649 13.2899L4.9033 9.80168L3.92436 8.81808C3.77149 8.66085 3.6859 8.44976 3.6859 8.22995C3.6859 8.01014 3.77149 7.79905 3.92436 7.64182C4.08255 7.48757 4.29432 7.4013 4.51475 7.4013C4.73519 7.4013 4.94695 7.48757 5.10514 7.64182L6.08408 8.62542L9.55578 12.1035C9.58953 12.1375 9.62964 12.1645 9.6738 12.183C9.71796 12.2014 9.76531 12.2109 9.81313 12.2109C9.86094 12.2109 9.90829 12.2014 9.95245 12.183C9.99661 12.1645 10.0367 12.1375 10.0705 12.1035C10.1395 12.0333 10.1782 11.9386 10.1782 11.8399C10.1782 11.7412 10.1395 11.6464 10.0705 11.5762L6.60887 8.09813C6.49146 7.98156 6.41143 7.83237 6.37906 7.66975C6.34669 7.50712 6.36346 7.33849 6.42721 7.18551C6.48941 7.03247 6.5956 6.90153 6.73222 6.80941C6.86884 6.7173 7.02969 6.66819 7.19422 6.66836C7.41624 6.66836 7.62818 6.75962 7.77956 6.91173L13.633 12.7829C13.6968 12.8357 13.7762 12.8658 13.8588 12.8683C13.9414 12.8709 14.0225 12.8459 14.0895 12.7972C14.1564 12.7485 14.2054 12.6789 14.2287 12.5992C14.252 12.5196 14.2484 12.4344 14.2183 12.357L13.088 9.96392C12.8256 9.39607 12.8862 8.97018 13.2899 8.65584C13.3682 8.59631 13.458 8.55384 13.5536 8.53114C13.6491 8.50844 13.7484 8.50602 13.8449 8.52401C14.1275 8.57472 14.4 8.75724 14.5817 9.03102L16.8019 12.9451C18.1139 15.3585 17.68 17.5995 15.5 19.7898C14.9646 20.3547 14.298 20.7774 13.56 21.0198C12.822 21.2623 12.0356 21.317 11.2714 21.179C9.70165 20.8601 8.26756 20.0635 7.16394 18.8974H7.15385ZM10.4136 6.22219L12.5531 8.36177C12.1394 8.86878 12.0788 9.54817 12.4219 10.2884L12.644 10.7549L9.09154 7.17537C9.03004 7.06325 8.99548 6.93825 8.99062 6.81032C8.99062 6.5771 9.08145 6.3743 9.23283 6.21205C9.39221 6.06013 9.60353 5.97545 9.82322 5.97545C10.0429 5.97545 10.2542 6.06013 10.4136 6.21205V6.22219ZM17.8414 7.94602C17.7041 7.72577 17.5229 7.53642 17.3093 7.38984C17.0957 7.24326 16.8542 7.14263 16.6001 7.09425C16.4031 7.05925 16.201 7.0655 16.0065 7.11262C15.812 7.15973 15.6293 7.24668 15.4698 7.36803C15.167 7.6114 14.9652 7.92574 14.8844 8.27051C14.6321 8.01701 14.3092 7.8649 13.966 7.79392C13.6835 7.75336 13.4009 7.79392 13.1385 7.89532L10.9384 5.68476C10.6434 5.39002 10.2443 5.22457 9.82826 5.22457C9.41224 5.22457 9.01312 5.39002 8.71813 5.68476C8.51629 5.88757 8.38509 6.13093 8.31444 6.39458C8.11607 6.19307 7.86745 6.04881 7.59459 5.9769C7.32173 5.90498 7.03465 5.90805 6.76338 5.98578C6.4921 6.06351 6.24659 6.21304 6.05253 6.41874C5.85846 6.62445 5.72297 6.87876 5.66021 7.15509C5.36411 6.85536 4.96337 6.68345 4.54313 6.67587C4.12289 6.6683 3.71627 6.82566 3.40966 7.11453C3.11631 7.41093 2.95164 7.81194 2.95164 8.22995C2.95164 8.64796 3.11631 9.04897 3.40966 9.34537C3.16745 9.44677 2.90505 9.58873 2.68303 9.80168C2.38968 10.0981 2.22501 10.4991 2.22501 10.9171C2.22501 11.3351 2.38968 11.7361 2.68303 12.0325L3.20782 12.5598C2.93677 12.625 2.6878 12.7613 2.48636 12.9549C2.28491 13.1484 2.13821 13.3922 2.06123 13.6613C1.98426 13.9305 1.97978 14.2153 2.04824 14.4868C2.1167 14.7582 2.25566 15.0066 2.45091 15.2064L6.62906 19.4247C7.84551 20.7009 9.42455 21.5686 11.1503 21.9091C12.3052 22.1278 13.4998 21.9492 14.5413 21.402C15.3181 21.5031 16.1076 21.4169 16.8446 21.1507C17.5817 20.8844 18.2451 20.4457 18.78 19.8709C21.5553 17.062 21.3434 14.0504 20.2232 12.1745L17.8313 7.94602H17.8414Z" fill="white"/>
</svg>
