<svg width="298" height="332" viewBox="0 0 298 332" fill="none" xmlns="http://www.w3.org/2000/svg">
<path d="M133.67 305.446L140.257 322.825C141.877 327.1 145.972 329.927 150.543 329.927H196.919C201.402 329.927 205.437 327.206 207.117 323.05L214.196 305.542C215.203 303.052 215.264 300.281 214.368 297.75L188.371 224.264C186.817 219.87 182.662 216.933 178.001 216.933H169.998C165.337 216.933 161.182 219.87 159.628 224.264L133.585 297.879C132.717 300.332 132.747 303.013 133.67 305.446Z" stroke="white" stroke-width="4"/>
<path d="M134.937 152.873L139.837 162.006C141.753 165.577 145.477 167.806 149.53 167.806H197.958C201.903 167.806 205.546 165.693 207.505 162.269L212.83 152.965C214.659 149.768 214.767 145.869 213.119 142.576L188.82 94.0483C186.955 90.3249 183.148 87.9734 178.984 87.9734H169.016C164.851 87.9734 161.044 90.3248 159.18 94.0483L134.795 142.748C133.194 145.946 133.247 149.722 134.937 152.873Z" stroke="white" stroke-width="4"/>
<path d="M4.2815 146.927L8.52319 153.996C10.5111 157.309 14.0917 159.337 17.9556 159.337H67.212C70.9628 159.337 74.4551 157.425 76.477 154.266L81.1211 147.01C83.3087 143.592 83.4366 139.247 81.4536 135.706L57.7878 93.4452C55.8424 89.9713 52.1717 87.8198 48.1902 87.8198H37.4844C33.5029 87.8198 29.8322 89.9713 27.8868 93.4452L4.11636 135.892C2.18906 139.334 2.25207 143.544 4.2815 146.927Z" stroke="white" stroke-width="4"/>
<path d="M70.0764 64.4721L74.3181 57.4026C76.3061 54.0894 79.8866 52.0621 83.7505 52.0621H133.007C136.758 52.0621 140.25 53.9733 142.272 57.1325L146.916 64.3888C149.104 67.807 149.231 72.1521 147.249 75.693L123.583 117.953C121.637 121.427 117.967 123.579 113.985 123.579H103.279C99.2978 123.579 95.6271 121.427 93.6818 117.953L69.9113 75.5062C67.984 72.0646 68.047 67.8545 70.0764 64.4721Z" stroke="white" stroke-width="4"/>
<path d="M69.9188 197.109L74.7288 188.281C76.6557 184.744 80.3609 182.544 84.3881 182.544H132.913C136.832 182.544 140.455 184.628 142.424 188.016L147.656 197.018C149.532 200.246 149.642 204.204 147.95 207.532L123.742 255.134C121.866 258.824 118.077 261.148 113.937 261.148H103.875C99.7351 261.148 95.9461 258.824 94.0696 255.134L69.7731 207.358C68.1296 204.126 68.1841 200.292 69.9188 197.109Z" stroke="white" stroke-width="4"/>
<path d="M217.402 61.1068L221.643 68.1762C223.631 71.4895 227.212 73.5168 231.076 73.5168H280.332C284.083 73.5168 287.575 71.6056 289.597 68.4464L294.241 61.19C296.429 57.7718 296.557 53.4267 294.574 49.8858L270.908 7.62536C268.963 4.15149 265.292 2 261.31 2H250.605C246.623 2 242.952 4.15149 241.007 7.62536L217.236 50.0727C215.309 53.5143 215.372 57.7244 217.402 61.1068Z" stroke="white" stroke-width="4"/>
</svg>
