<svg width="477" height="323" viewBox="0 0 477 323" fill="none" xmlns="http://www.w3.org/2000/svg">
<path d="M296.039 306.486L301.832 316.14C303.716 319.281 307.11 321.202 310.772 321.202H367.62C371.175 321.202 374.485 319.391 376.402 316.396L382.694 306.565C384.768 303.325 384.889 299.206 383.009 295.85L355.616 246.933C353.772 243.64 350.292 241.601 346.519 241.601H332.472C328.698 241.601 325.219 243.64 323.375 246.933L295.883 296.027C294.056 299.289 294.115 303.28 296.039 306.486Z" fill="white" stroke="white" stroke-width="3.20806"/>
<path d="M296.039 162.407L301.832 172.061C303.716 175.202 307.11 177.123 310.772 177.123H367.62C371.175 177.123 374.485 175.312 376.402 172.317L382.694 162.486C384.768 159.246 384.889 155.127 383.009 151.771L355.616 102.854C353.772 99.5612 350.292 97.522 346.519 97.522H332.472C328.698 97.522 325.219 99.5612 323.375 102.854L295.883 151.948C294.056 155.21 294.115 159.201 296.039 162.407Z" fill="white" stroke="white" stroke-width="3.20806"/>
<path d="M149.577 162.407L155.37 172.061C157.254 175.202 160.648 177.123 164.31 177.123H221.158C224.713 177.123 228.023 175.312 229.94 172.317L236.232 162.486C238.306 159.246 238.427 155.127 236.547 151.771L209.154 102.854C207.31 99.5612 203.831 97.522 200.057 97.522H186.01C182.237 97.522 178.757 99.5612 176.913 102.854L149.421 151.948C147.594 155.21 147.654 159.201 149.577 162.407Z" fill="white" stroke="white" stroke-width="3.20806"/>
<path d="M3.11032 162.407L8.90301 172.061C10.7873 175.202 14.1811 177.123 17.8434 177.123H74.6914C78.2465 177.123 81.5566 175.312 83.4731 172.317L89.7653 162.486C91.8388 159.246 91.96 155.127 90.0805 151.771L62.6868 102.854C60.8429 99.5612 57.3637 97.522 53.5899 97.522H39.5436C35.7698 97.522 32.2905 99.5612 30.4466 102.854L2.9538 151.948C1.12703 155.21 1.18675 159.201 3.11032 162.407Z" fill="white" stroke="white" stroke-width="3.20806"/>
<path d="M76.3437 72.4353L82.1364 62.7808C84.0207 59.6404 87.4145 57.7188 91.0768 57.7188H147.925C151.48 57.7188 154.79 59.5303 156.706 62.5247L162.999 72.3563C165.072 75.5962 165.193 79.7147 163.314 83.0709L135.92 131.988C134.076 135.281 130.597 137.32 126.823 137.32H112.777C109.003 137.32 105.524 135.281 103.68 131.988L76.1872 82.8938C74.3604 79.6317 74.4202 75.6412 76.3437 72.4353Z" fill="white" stroke="white" stroke-width="3.20806"/>
<path d="M222.807 72.4353L228.599 62.7808C230.484 59.6404 233.877 57.7188 237.54 57.7188H294.388C297.943 57.7188 301.253 59.5303 303.169 62.5247L309.462 72.3563C311.535 75.5962 311.656 79.7147 309.777 83.0709L282.383 131.988C280.539 135.281 277.06 137.32 273.286 137.32H259.24C255.466 137.32 251.987 135.281 250.143 131.988L222.65 82.8938C220.823 79.6317 220.883 75.6412 222.807 72.4353Z" fill="white" stroke="white" stroke-width="3.20806"/>
<path d="M222.807 217.313L228.599 207.658C230.484 204.518 233.877 202.596 237.54 202.596H294.388C297.943 202.596 301.253 204.408 303.169 207.402L309.462 217.234C311.535 220.474 311.656 224.592 309.777 227.949L282.383 276.866C280.539 280.158 277.06 282.198 273.286 282.198H259.24C255.466 282.198 251.987 280.158 250.143 276.866L222.65 227.771C220.823 224.509 220.883 220.519 222.807 217.313Z" fill="white" stroke="white" stroke-width="3.20806"/>
<path d="M386.79 66.8848L392.583 76.5393C394.467 79.6797 397.861 81.6013 401.523 81.6013H458.371C461.926 81.6013 465.236 79.7897 467.153 76.7953L473.445 66.9638C475.519 63.7239 475.64 59.6054 473.76 56.2492L446.367 7.33192C444.523 4.03926 441.043 2 437.27 2H423.223C419.449 2 415.97 4.03927 414.126 7.33193L386.633 56.4263C384.807 59.6884 384.866 63.6789 386.79 66.8848Z" fill="white" stroke="white" stroke-width="3.20806"/>
</svg>
