<svg width="307" height="28" viewBox="0 0 307 28" fill="none" xmlns="http://www.w3.org/2000/svg">
<path d="M21.1 0.8H34.7V28H27.9V22.05L21.95 28H0.7V21.2L21.1 0.8ZM27.9 20.35V7.6H23.922L10.322 21.2H19.128L23.956 16.406L27.9 20.35ZM65.2867 0.8H72.0867V11.85H66.1367L72.0867 17.8V28H38.0867V21.2H65.2867V20.622L62.4647 17.8H44.8867L38.0867 11V0.8H44.8867V8.178L47.7087 11H65.2867V0.8ZM102.673 0.8L109.473 7.6V28H102.673V10.422L99.8514 7.6H89.0734L95.8734 14.4V28H89.0734V17.222L84.2794 12.394L82.2734 10.422V28H75.4734V0.8H82.2734L88.2234 6.75V0.8H102.673ZM133.26 0.8H146.86V28H140.06V22.05L134.11 28H112.86V21.2L133.26 0.8ZM140.06 20.35V7.6H136.082L122.482 21.2H131.288L136.116 16.406L140.06 20.35ZM179.99 0.8H194.44V7.6H180.84V28H174.04V10.422L171.218 7.6H160.44V0.8H174.04L179.99 6.75V0.8ZM197.827 0.8H231.827V7.6H204.627V11H231.827V17.8H207.449L204.627 20.622V21.2H231.827V28H197.827V17.8L203.777 11.85H197.827V0.8ZM242.014 10.422V21.2H269.214V28H235.214V7.6L242.014 0.8H269.214V7.6H244.836L242.014 10.422ZM299.8 0.8H306.6V28H299.8V17.8H279.4V28H272.6V0.8H279.4V11H299.8V0.8Z" fill="white"/>
</svg>
