<svg width="709" height="26" viewBox="0 0 709 26" fill="none" xmlns="http://www.w3.org/2000/svg">
<circle cx="2.02591" cy="2.02591" r="2.02591" transform="matrix(-1 8.74228e-08 8.74228e-08 1 4.05176 21.1997)" fill="white" fill-opacity="0.88"/>
<circle cx="2.02591" cy="2.02591" r="2.02591" transform="matrix(-1 8.74228e-08 8.74228e-08 1 4.05176 0)" fill="white" fill-opacity="0.88"/>
<rect width="15.7032" height="16.4884" transform="matrix(1 0 0 -1 162.529 17.3989)" fill="white"/>
<rect width="3.14065" height="16.4884" transform="matrix(1 0 0 -1 182.157 17.3989)" fill="white"/>
<rect width="7.06645" height="16.4884" transform="matrix(1 0 0 -1 312.493 17.3989)" fill="white"/>
<rect width="3.92581" height="16.4884" transform="matrix(1 0 0 -1 388.654 17.3989)" fill="white"/>
<rect width="9.42194" height="16.4884" transform="matrix(1 0 0 -1 404.358 17.3989)" fill="white"/>
<rect width="36.1174" height="16.4884" transform="matrix(1 0 0 -1 517.422 17.3989)" fill="white"/>
<rect width="10.2071" height="16.4884" transform="matrix(1 0 0 -1 655.608 17.3989)" fill="white"/>
<rect width="3.92581" height="16.4884" transform="matrix(1 0 0 -1 705.074 17.3989)" fill="white"/>
</svg>
